<svg width="178" height="28" viewBox="0 0 178 28" fill="none" xmlns="http://www.w3.org/2000/svg">
<path d="M5.59363 27.2923H0.151367L0.151372 0.521787L5.59363 0.521788L5.59363 27.2923Z" fill="white"/>
<path d="M25.7506 27.4453H20.5747L9.38573 0.521789L15.4369 0.52179L23.2007 19.7966L31.0025 0.521792L36.9396 0.521793L25.7506 27.4453Z" fill="white"/>
<path d="M46.1787 27.2923H40.7364L40.7364 0.521794L46.1787 0.521795L46.1787 27.2923Z" fill="white"/>
<path d="M63.8619 27.4453L59.0285 27.4453L50.0849 0.521796L56.1742 0.521797L61.6545 18.5728L67.6676 0.445312L71.9301 0.445313L77.9813 18.5728L83.4616 0.521802L89.4367 0.521803L80.455 27.4453H75.6217L69.7989 9.58554L63.8619 27.4453Z" fill="white"/>
<path d="M98.616 27.2923H93.1357L93.1357 0.521803L98.616 0.521804V10.5416L110.642 10.5416V0.521806L116.085 0.521807V27.2923H110.642V15.5516L98.616 15.5515V27.2923Z" fill="white"/>
<path d="M127.609 27.2923H122.167L122.167 0.521808L127.609 0.521809V27.2923Z" fill="white"/>
<path d="M131.858 5.45524V0.52181L154.198 0.521814V5.45524L145.749 5.45524V27.2924H140.268L140.268 5.45524L131.858 5.45524Z" fill="white"/>
<path d="M158.287 0.521815L177.849 0.521818V5.45525L158.287 5.45524V0.521815Z" fill="white"/>
<path d="M158.287 0.521815L177.849 0.521818V5.45525L158.287 5.45524V0.521815Z" fill="white"/>
<path d="M158.287 0.521815L177.849 0.521818V5.45525L158.287 5.45524V0.521815Z" fill="white"/>
<path d="M158.287 0.521815L177.849 0.521818V5.45525L158.287 5.45524V0.521815Z" fill="white"/>
<path d="M158.287 11.4362H177.849V16.2931H158.287V11.4362Z" fill="white"/>
<path d="M158.287 22.3589H177.849V27.2924H158.287V22.3589Z" fill="white"/>
</svg>
