<svg width="362" height="55" viewBox="0 0 362 55" fill="none" xmlns="http://www.w3.org/2000/svg">
<path d="M11.1414 54.6884H0.0581055L0.058115 0.155781L11.1414 0.155783L11.1414 54.6884Z" fill="white"/>
<path d="M52.1913 55H41.6506L18.864 0.155784L31.1874 0.155787L46.9984 39.4192L62.887 0.155792L74.9778 0.155794L52.1913 55Z" fill="white"/>
<path d="M93.7934 54.6884H82.7102L82.7102 0.155796L93.7934 0.155798L93.7934 54.6884Z" fill="white"/>
<path d="M129.806 55L119.962 55L101.749 0.155799L114.149 0.155801L125.31 36.9263L137.556 0L146.237 1.52556e-06L158.56 36.9263L169.721 0.155811L181.889 0.155813L163.598 55H153.755L141.896 18.619L129.806 55Z" fill="white"/>
<path d="M200.583 54.6884H189.422L189.422 0.155814L200.583 0.155816V20.5666L225.075 20.5666V0.155821L236.158 0.155823V54.6884H225.075V30.772L200.583 30.772V54.6884Z" fill="white"/>
<path d="M259.627 54.6884H248.544L248.544 0.155825L259.627 0.155827V54.6884Z" fill="white"/>
<path d="M268.28 10.2054V0.155828L313.776 0.155836V10.2054L296.57 10.2054V54.6884H285.409L285.409 10.2054L268.28 10.2054Z" fill="white"/>
<path d="M322.104 0.155838L361.942 0.155845V10.2054L322.104 10.2054V0.155838Z" fill="white"/>
<path d="M322.104 0.155838L361.942 0.155845V10.2054L322.104 10.2054V0.155838Z" fill="white"/>
<path d="M322.104 0.155838L361.942 0.155845V10.2054L322.104 10.2054V0.155838Z" fill="white"/>
<path d="M322.104 0.155838L361.942 0.155845V10.2054L322.104 10.2054V0.155838Z" fill="white"/>
<path d="M322.104 22.3888H361.942V32.2826H322.104V22.3888Z" fill="white"/>
<path d="M322.104 44.6388H361.942V54.6884H322.104V44.6388Z" fill="white"/>
</svg>
