<svg width="178" height="28" viewBox="0 0 178 28" fill="none" xmlns="http://www.w3.org/2000/svg">
<path d="M5.45152 27.0853H0L4.66589e-06 0.314756L5.45153 0.314757L5.45152 27.0853Z" fill="url(#paint0_linear_208_153)"/>
<path d="M25.6428 27.2383H20.4581L9.25008 0.314757L15.3116 0.314758L23.0885 19.5895L30.9037 0.314761L36.8508 0.314762L25.6428 27.2383Z" fill="url(#paint1_linear_208_153)"/>
<path d="M46.1056 27.0853H40.6541L40.6541 0.314763L46.1056 0.314764L46.1056 27.0853Z" fill="url(#paint2_linear_208_153)"/>
<path d="M63.8189 27.2383L58.9773 27.2383L50.0185 0.314764L56.1181 0.314765L61.6078 18.3658L67.6311 0.238281L71.9009 0.238282L77.9623 18.3658L83.452 0.31477L89.4372 0.314771L80.4403 27.2383H75.5987L69.766 9.37851L63.8189 27.2383Z" fill="url(#paint3_linear_208_153)"/>
<path d="M98.6322 27.0853H93.1425L93.1426 0.314772L98.6322 0.314773V10.3346L110.679 10.3346V0.314775L116.13 0.314776V27.0853H110.679V15.3445L98.6322 15.3445V27.0853Z" fill="url(#paint4_linear_208_153)"/>
<path d="M127.674 27.0853H122.223L122.223 0.314777L127.674 0.314778V27.0853Z" fill="url(#paint5_linear_208_153)"/>
<path d="M131.93 5.24821V0.314779L154.308 0.314783V5.24821L145.845 5.24821V27.0853H140.355L140.356 5.24821L131.93 5.24821Z" fill="url(#paint6_linear_208_153)"/>
<path d="M158.405 0.314783L178 0.314787V5.24821L158.405 5.24821V0.314783Z" fill="url(#paint7_linear_208_153)"/>
<path d="M158.405 0.314783L178 0.314787V5.24821L158.405 5.24821V0.314783Z" fill="url(#paint8_linear_208_153)"/>
<path d="M158.405 0.314783L178 0.314787V5.24821L158.405 5.24821V0.314783Z" fill="url(#paint9_linear_208_153)"/>
<path d="M158.405 0.314783L178 0.314787V5.24821L158.405 5.24821V0.314783Z" fill="url(#paint10_linear_208_153)"/>
<path d="M158.405 11.2292H178V16.0861H158.405V11.2292Z" fill="url(#paint11_linear_208_153)"/>
<path d="M158.405 22.1519H178V27.0853H158.405V22.1519Z" fill="url(#paint12_linear_208_153)"/>
<defs>
<linearGradient id="paint0_linear_208_153" x1="9.34775" y1="8.75368" x2="169.078" y2="10.4781" gradientUnits="userSpaceOnUse">
<stop stop-color="#2063C9"/>
<stop offset="0.444881" stop-color="#3CCCCF"/>
<stop offset="1" stop-color="#52E98F"/>
</linearGradient>
<linearGradient id="paint1_linear_208_153" x1="9.34775" y1="8.75368" x2="169.078" y2="10.4781" gradientUnits="userSpaceOnUse">
<stop stop-color="#2063C9"/>
<stop offset="0.444881" stop-color="#3CCCCF"/>
<stop offset="1" stop-color="#52E98F"/>
</linearGradient>
<linearGradient id="paint2_linear_208_153" x1="9.34775" y1="8.75368" x2="169.078" y2="10.4781" gradientUnits="userSpaceOnUse">
<stop stop-color="#2063C9"/>
<stop offset="0.444881" stop-color="#3CCCCF"/>
<stop offset="1" stop-color="#52E98F"/>
</linearGradient>
<linearGradient id="paint3_linear_208_153" x1="9.34775" y1="8.75368" x2="169.078" y2="10.4781" gradientUnits="userSpaceOnUse">
<stop stop-color="#2063C9"/>
<stop offset="0.444881" stop-color="#3CCCCF"/>
<stop offset="1" stop-color="#52E98F"/>
</linearGradient>
<linearGradient id="paint4_linear_208_153" x1="9.34775" y1="8.75368" x2="169.078" y2="10.4781" gradientUnits="userSpaceOnUse">
<stop stop-color="#2063C9"/>
<stop offset="0.444881" stop-color="#3CCCCF"/>
<stop offset="1" stop-color="#52E98F"/>
</linearGradient>
<linearGradient id="paint5_linear_208_153" x1="9.34775" y1="8.75368" x2="169.078" y2="10.4781" gradientUnits="userSpaceOnUse">
<stop stop-color="#2063C9"/>
<stop offset="0.444881" stop-color="#3CCCCF"/>
<stop offset="1" stop-color="#52E98F"/>
</linearGradient>
<linearGradient id="paint6_linear_208_153" x1="9.34775" y1="8.75368" x2="169.078" y2="10.4781" gradientUnits="userSpaceOnUse">
<stop stop-color="#2063C9"/>
<stop offset="0.444881" stop-color="#3CCCCF"/>
<stop offset="1" stop-color="#52E98F"/>
</linearGradient>
<linearGradient id="paint7_linear_208_153" x1="9.34775" y1="8.75368" x2="169.078" y2="10.4781" gradientUnits="userSpaceOnUse">
<stop stop-color="#2063C9"/>
<stop offset="0.444881" stop-color="#3CCCCF"/>
<stop offset="1" stop-color="#52E98F"/>
</linearGradient>
<linearGradient id="paint8_linear_208_153" x1="9.34775" y1="8.75368" x2="169.078" y2="10.4781" gradientUnits="userSpaceOnUse">
<stop stop-color="#2063C9"/>
<stop offset="0.444881" stop-color="#3CCCCF"/>
<stop offset="1" stop-color="#52E98F"/>
</linearGradient>
<linearGradient id="paint9_linear_208_153" x1="9.34775" y1="8.75368" x2="169.078" y2="10.4781" gradientUnits="userSpaceOnUse">
<stop stop-color="#2063C9"/>
<stop offset="0.444881" stop-color="#3CCCCF"/>
<stop offset="1" stop-color="#52E98F"/>
</linearGradient>
<linearGradient id="paint10_linear_208_153" x1="9.34775" y1="8.75368" x2="169.078" y2="10.4781" gradientUnits="userSpaceOnUse">
<stop stop-color="#2063C9"/>
<stop offset="0.444881" stop-color="#3CCCCF"/>
<stop offset="1" stop-color="#52E98F"/>
</linearGradient>
<linearGradient id="paint11_linear_208_153" x1="9.34775" y1="8.75368" x2="169.078" y2="10.4781" gradientUnits="userSpaceOnUse">
<stop stop-color="#2063C9"/>
<stop offset="0.444881" stop-color="#3CCCCF"/>
<stop offset="1" stop-color="#52E98F"/>
</linearGradient>
<linearGradient id="paint12_linear_208_153" x1="9.34775" y1="8.75368" x2="169.078" y2="10.4781" gradientUnits="userSpaceOnUse">
<stop stop-color="#2063C9"/>
<stop offset="0.444881" stop-color="#3CCCCF"/>
<stop offset="1" stop-color="#52E98F"/>
</linearGradient>
</defs>
</svg>
